<svg xmlns="http://www.w3.org/2000/svg" viewBox="0 0 100 100">
  <!-- body -->
  <path fill="#e8586e" d="M50 92 C28 72 10 56 10 36 C10 18 28 10 50 10 C72 10 90 18 90 36 C90 56 72 72 50 92Z"/>
  <!-- shine -->
  <path fill="#f07888" d="M26 24 C20 32 18 42 20 50 C20 38 24 28 26 24Z" opacity="0.55"/>
  <!-- seeds -->
  <ellipse fill="#fac8d0" cx="38" cy="36" rx="3" ry="4"/>
  <ellipse fill="#fac8d0" cx="52" cy="30" rx="3" ry="4"/>
  <ellipse fill="#fac8d0" cx="64" cy="38" rx="3" ry="4"/>
  <ellipse fill="#fac8d0" cx="33" cy="52" rx="3" ry="4"/>
  <ellipse fill="#fac8d0" cx="50" cy="50" rx="3" ry="4"/>
  <ellipse fill="#fac8d0" cx="66" cy="53" rx="3" ry="4"/>
  <ellipse fill="#fac8d0" cx="41" cy="67" rx="3" ry="4"/>
  <ellipse fill="#fac8d0" cx="58" cy="68" rx="3" ry="4"/>
  <!-- leaf base -->
  <ellipse fill="#5cb85c" cx="50" cy="13" rx="17" ry="6"/>
  <!-- leaves -->
  <path fill="#4caf50" d="M50 14 Q34 -2 24 6 Q38 12 50 18Z"/>
  <path fill="#4caf50" d="M50 14 Q66 -2 76 6 Q62 12 50 18Z"/>
  <path fill="#4caf50" d="M50 14 Q42 0 46 12Z"/>
  <path fill="#4caf50" d="M50 14 Q58 0 54 12Z"/>
</svg>
